<svg xmlns="http://www.w3.org/2000/svg" width="25" height="15" viewBox="0 0 25 15"><rect width="25" height="15" fill="#0052b4"/><polygon points="22.6 0 14.69 4.78 14.69 0 12.5 0 10.31 0 10.31 4.78 2.4 0 0 0 0 1.41 6.77 5.53 0 5.53 0 7.5 0 9.47 6.77 9.47 0 13.59 0 15 2.4 15 10.31 10.22 10.31 15 12.5 15 14.69 15 14.69 10.22 22.6 15 25 15 25 13.59 18.23 9.47 25 9.47 25 5.53 18.23 5.53 25 1.41 25 0 22.6 0" fill="#f5f5f5"/><polygon points="24.79 0 15.63 5.53 17.19 5.53 25 0.84 25 0 24.79 0" fill="#d80027"/><polygon points="0 0 0 0.84 7.81 5.53 9.38 5.53 0.21 0 0 0" fill="#d80027"/><polygon points="7.81 9.47 0 14.16 0 15 0.21 15 9.38 9.47 7.81 9.47" fill="#d80027"/><polygon points="15.63 9.47 24.79 15 25 15 25 14.16 17.19 9.47 15.63 9.47" fill="#d80027"/><polygon points="12.5 0 11.15 0 11.15 6.28 0 6.28 0 7.5 0 8.72 11.15 8.72 11.15 15 12.5 15 13.86 15 13.86 8.72 25 8.72 25 6.28 13.86 6.28 13.86 0 12.5 0" fill="#d80027"/></svg>