<svg xmlns="http://www.w3.org/2000/svg" width="25" height="15" viewBox="0 0 25 15"><rect width="25" height="15" fill="#d80027"/><polygon points="4.41 2.32 5.1 4.48 7.32 4.48 5.52 5.81 6.21 7.97 4.41 6.63 2.61 7.97 3.3 5.81 1.5 4.47 3.72 4.47 4.41 2.32" fill="#ffda44"/><polygon points="8.74 9.5 8.07 9 7.39 9.5 7.65 8.69 6.97 8.19 7.81 8.19 8.07 7.38 8.32 8.19 9.16 8.19 8.48 8.69 8.74 9.5" fill="#ffda44"/><polygon points="10.5 7.03 9.66 7.03 9.41 7.84 9.15 7.03 8.32 7.03 8.99 6.53 8.73 5.72 9.41 6.22 10.08 5.72 9.83 6.53 10.5 7.03" fill="#ffda44"/><polygon points="10.5 3.97 9.82 4.47 10.08 5.28 9.41 4.78 8.73 5.28 8.99 4.47 8.32 3.97 9.15 3.97 9.41 3.16 9.67 3.97 10.5 3.97" fill="#ffda44"/><polygon points="8.74 1.5 8.48 2.31 9.15 2.81 8.32 2.81 8.06 3.62 7.8 2.81 6.97 2.81 7.65 2.31 7.39 1.5 8.06 2 8.74 1.5" fill="#ffda44"/></svg>