<svg xmlns="http://www.w3.org/2000/svg" xmlns:xlink="http://www.w3.org/1999/xlink" viewBox="0 0 26.96 26.96"><defs><clipPath id="a" transform="translate(0 0)"><rect width="26.96" height="26.96" fill="none"/></clipPath></defs><g clip-path="url(#a)"><path d="M16.06,1a9.9,9.9,0,1,1-9.89,9.9A9.91,9.91,0,0,1,16.06,1m0-1A10.9,10.9,0,1,0,27,10.9,10.9,10.9,0,0,0,16.06,0" transform="translate(0 0)" fill="currentColor"/><line x1="8.69" y1="18.27" x2="0.5" y2="26.46" fill="none" stroke="currentColor" stroke-linecap="round" stroke-linejoin="round"/><path d="M16.06,16.75h0a.5.5,0,0,0,.5-.5V5.54a.5.5,0,0,0-.5-.5.5.5,0,0,0-.5.5V16.25a.5.5,0,0,0,.5.5" transform="translate(0 0)" fill="currentColor"/><path d="M10.06,10.89h0a.5.5,0,0,0,.5.5h11a.5.5,0,0,0,.5-.5.5.5,0,0,0-.5-.5h-11a.51.51,0,0,0-.5.5" transform="translate(0 0)" fill="currentColor"/></g></svg>