<svg xmlns="http://www.w3.org/2000/svg" xmlns:xlink="http://www.w3.org/1999/xlink" width="63.68" height="59.97" viewBox="0 0 63.68 59.97"><path d="M58.68,0h-40a5,5,0,0,0-5,5V35a5,5,0,0,0,5,5h12a3,3,0,0,1,2.43,1.25L45.68,58.84a2.69,2.69,0,0,0,3,1,2.87,2.87,0,0,0,2-2.79V43a3,3,0,0,1,3-3h5a5,5,0,0,0,5-5V5a5,5,0,0,0-5-5m3,35a3,3,0,0,1-3,3h-5a5,5,0,0,0-5,5V57.08a.86.86,0,0,1-.58.88.66.66,0,0,1-.79-.29L34.68,40.08a5,5,0,0,0-4-2.08h-12a3,3,0,0,1-3-3V5a3,3,0,0,1,3-3h40a3,3,0,0,1,3,3Z" fill="#fff"/><path d="M0,28.42V44.88A2.42,2.42,0,0,0,2.42,47.3H4.84a1.45,1.45,0,0,1,1.45,1.45v6.81a1.4,1.4,0,0,0,1,1.35,1.3,1.3,0,0,0,1.45-.49l6.09-8.51A1.45,1.45,0,0,1,16,47.3h5.8a2.42,2.42,0,0,0,2.43-2.42V28.42A2.42,2.42,0,0,0,21.78,26H2.42A2.42,2.42,0,0,0,0,28.42m1,0A1.45,1.45,0,0,1,2.42,27H21.78a1.45,1.45,0,0,1,1.46,1.45V44.88a1.45,1.45,0,0,1-1.46,1.45H16a2.44,2.44,0,0,0-1.94,1L7.93,55.86a.33.33,0,0,1-.39.14.42.42,0,0,1-.28-.43V48.75a2.42,2.42,0,0,0-2.42-2.42H2.42A1.45,1.45,0,0,1,1,44.88Z" fill="#fff"/><path d="M39.09,9a6.27,6.27,0,0,1,4.55,1.57,5.67,5.67,0,0,1,1.63,4.3,7.77,7.77,0,0,1-2.5,5.33l-1.69,1.66A5.23,5.23,0,0,0,40,25.46H37.09a9.14,9.14,0,0,1,.42-2.9,7.34,7.34,0,0,1,1.58-2.36l2-2.09A4.67,4.67,0,0,0,42.41,15a3.6,3.6,0,0,0-.85-2.54,3.21,3.21,0,0,0-2.47-.91,3.72,3.72,0,0,0-2.54.83,2.83,2.83,0,0,0-1,2.24H32.73a5.21,5.21,0,0,1,1.79-4A6.65,6.65,0,0,1,39.09,9m-.44,19.72a1.62,1.62,0,0,1,1.27.48,1.67,1.67,0,0,1,.43,1.18,1.77,1.77,0,0,1-3,1.16A1.67,1.67,0,0,1,37,30.38a1.71,1.71,0,0,1,.42-1.18,1.61,1.61,0,0,1,1.26-.48M39.09,8a7.65,7.65,0,0,0-5.23,1.79,6.15,6.15,0,0,0-2.13,4.78v1h4.87v-1a1.81,1.81,0,0,1,.62-1.48,2.72,2.72,0,0,1,1.88-.59,2.25,2.25,0,0,1,1.74.59A2.66,2.66,0,0,1,41.41,15a3.67,3.67,0,0,1-1,2.49l-2,2.05a8.21,8.21,0,0,0-1.8,2.72,10,10,0,0,0-.48,3.23l0,1H41v-1a4.29,4.29,0,0,1,.86-2.91l1.66-1.64a8.78,8.78,0,0,0,2.8-6,6.64,6.64,0,0,0-1.94-5A7.25,7.25,0,0,0,39.09,8m-.44,19.72a2.55,2.55,0,0,0-2,.81A2.71,2.71,0,0,0,36,30.38a2.67,2.67,0,0,0,.69,1.84,2.94,2.94,0,0,0,4,0,2.64,2.64,0,0,0,.7-1.84,2.68,2.68,0,0,0-.69-1.86,2.61,2.61,0,0,0-2-.8" fill="#fff"/></svg>