<svg xmlns="http://www.w3.org/2000/svg" xmlns:xlink="http://www.w3.org/1999/xlink" width="50" height="68" viewBox="0 0 50 68"><path d="M12,41.5h8A2.5,2.5,0,0,0,22.5,39V19A2.5,2.5,0,0,0,20,16.5H12A2.5,2.5,0,0,0,9.5,19v1.15A1,1,0,0,0,9,21v2a1,1,0,0,0,.5.85V39A2.5,2.5,0,0,0,12,41.5m8-1H12A1.5,1.5,0,0,1,10.5,39V20.3h1c.33,0,.48.14.76.44a1.89,1.89,0,0,0,1.49.76h4.5a1.89,1.89,0,0,0,1.49-.76c.28-.3.43-.44.76-.44h1V39A1.5,1.5,0,0,1,20,40.5M10.5,19A1.5,1.5,0,0,1,12,17.5h8A1.5,1.5,0,0,1,21.5,19v.3h-1a1.89,1.89,0,0,0-1.49.76c-.28.3-.43.44-.76.44h-4.5c-.33,0-.48-.14-.76-.44a1.89,1.89,0,0,0-1.49-.76h-1Z" fill="#fff"/><path d="M18.5,47.62a.5.5,0,0,0-.5-.5H11a.5.5,0,0,0,0,1h7a.5.5,0,0,0,.5-.5" fill="#fff"/><path d="M26.5,51.62a.5.5,0,0,0-.5-.5H11a.5.5,0,0,0,0,1H26a.5.5,0,0,0,.5-.5" fill="#fff"/><path d="M22.5,55.62a.5.5,0,0,0-.5-.5H11a.5.5,0,0,0,0,1H22a.5.5,0,0,0,.5-.5" fill="#fff"/><path d="M22.5,59.62a.5.5,0,0,0-.5-.5H11a.5.5,0,0,0,0,1H22a.5.5,0,0,0,.5-.5" fill="#fff"/><path d="M41.2,48.75a1,1,0,0,0-1.41,0L34.61,54l-2.5-2.91a1,1,0,1,0-1.55,1.28l3.21,3.77a1,1,0,0,0,.68.36h.06a1,1,0,0,0,.75-.31l6-6.06a1,1,0,0,0,0-1.41" fill="#fff"/><path d="M26,17.12H38a.5.5,0,0,0,0-1H26a.5.5,0,0,0,0,1" fill="#fff"/><path d="M26,21.12H41a.5.5,0,0,0,0-1H26a.5.5,0,0,0,0,1" fill="#fff"/><path d="M26,25.12H38a.5.5,0,0,0,0-1H26a.5.5,0,0,0,0,1" fill="#fff"/><path d="M41.5,28.62a.5.5,0,0,0-.5-.5H26a.5.5,0,0,0,0,1H41a.5.5,0,0,0,.5-.5" fill="#fff"/><path d="M39.5,32.62a.5.5,0,0,0-.5-.5H26a.5.5,0,0,0,0,1H39a.5.5,0,0,0,.5-.5" fill="#fff"/><path d="M47,8H34c-.81,0-1.07-.38-1.61-1.45S31.12,4,29,4H27.82A2.85,2.85,0,0,0,28,3a3,3,0,0,0-6,0,2.85,2.85,0,0,0,.18,1H21c-2.12,0-2.89,1.54-3.39,2.55S16.81,8,16,8H3a3,3,0,0,0-3,3V65a3,3,0,0,0,3,3H47a3,3,0,0,0,3-3V11a3,3,0,0,0-3-3M25,2a1,1,0,1,1-1,1,1,1,0,0,1,1-1M19.39,7.45C19.93,6.38,20.19,6,21,6h8c.81,0,1.07.38,1.61,1.45.08.17.18.36.28.55H19.11c.1-.19.2-.38.28-.55M48,65a1,1,0,0,1-1,1H3a1,1,0,0,1-1-1V11a1,1,0,0,1,1-1H47a1,1,0,0,1,1,1V65Z" fill="#fff"/></svg>