<svg xmlns="http://www.w3.org/2000/svg" xmlns:xlink="http://www.w3.org/1999/xlink" width="64.02" height="64.01" viewBox="0 0 64.02 64.01"><path d="M61,0H33a3,3,0,0,0-3,3V27a3,3,0,0,0,3,3h3a1,1,0,0,1,1,1v.36a1,1,0,0,1-.17.56L32.4,37.84a1.49,1.49,0,0,0,1.18,2.39,1.36,1.36,0,0,0,.63-.15l10.42-4.83a3,3,0,0,0,1.63-1.66l1.19-3a1,1,0,0,1,.92-.63H61a3,3,0,0,0,3-3V3a3,3,0,0,0-3-3m1,27a1,1,0,0,1-1,1H48.37a3,3,0,0,0-2.78,1.89l-1.19,3a1,1,0,0,1-.58.57l-8.6,4,3.24-4.31A2.89,2.89,0,0,0,39,31.36V31a3,3,0,0,0-3-3H33a1,1,0,0,1-1-1V3a1,1,0,0,1,1-1H61a1,1,0,0,1,1,1Z" fill="#fff"/><path d="M17.77,2.15a6.21,6.21,0,0,0-8.27-1A60.91,60.91,0,0,0,1.91,7.64c-7.49,7.49,8.92,30.55,16.42,38.05C24.49,51.85,41.15,64,51,64a7.24,7.24,0,0,0,5.32-1.91,60.91,60.91,0,0,0,6.49-7.59,6.2,6.2,0,0,0-1-8.27c-3.69-3.16-12.62-10.16-15.75-7-2.22,2.23-8.13,8.14-11.22,5.06L19.74,29.12c-3.08-3.09,2.83-9,5.06-11.22,3.13-3.13-3.87-12.06-7-15.75M16.25,3.44c5.74,6.72,8.17,12,7.13,13-.43.44-1,1-1.58,1.63L10.8,2.7a4.18,4.18,0,0,1,5.45.74m31.29,37.2c1-1,6.32,1.39,13,7.13a4.19,4.19,0,0,1,.81,5.33L46.53,41.63ZM18.33,30.53,33.49,45.69c3.71,3.71,9.08-.36,12.31-3.37l15,11.6A59.29,59.29,0,0,1,55,60.7c-5.53,5.52-26.15-7.36-35.23-16.42S-2.2,14.58,3.32,9.05A60.21,60.21,0,0,1,10,3.29L21.11,18.86c-2.91,3.27-6.25,8.2-2.78,11.67" fill="#fff"/><path d="M47.87,6.7h0a1,1,0,0,1,1,1,3,3,0,0,0,3,3h4.23a1,1,0,0,1,1,1v6.56a1,1,0,0,1-1,1H51.88a3,3,0,0,0-3,3,1,1,0,0,1-1.58.82L37,15.82a1,1,0,0,1,0-1.64l10.3-7.3a1,1,0,0,1,.57-.18m0-1a1.91,1.91,0,0,0-1.14.37l-10.31,7.3a2,2,0,0,0,0,3.26l10.31,7.3a1.91,1.91,0,0,0,1.14.37,2,2,0,0,0,2-2v0a2,2,0,0,1,2-2h4.23a2,2,0,0,0,2-2V11.72a2,2,0,0,0-2-2H51.88a2,2,0,0,1-2-2v0a2,2,0,0,0-2-2" fill="#fff"/></svg>