<svg xmlns="http://www.w3.org/2000/svg" xmlns:xlink="http://www.w3.org/1999/xlink" viewBox="0 0 840.49 256.12"><defs><clipPath id="a" transform="translate(0)"><rect width="840.49" height="256.12" fill="none"/></clipPath></defs><polygon points="599.04 0.5 599.04 64.28 681.87 64.28 681.87 255.62 757.16 255.62 757.16 64.28 839.99 64.28 839.99 0.5 599.04 0.5"/><g clip-path="url(#a)"><polygon points="599.04 0.5 599.04 64.28 681.87 64.28 681.87 255.62 757.16 255.62 757.16 64.28 839.99 64.28 839.99 0.5 599.04 0.5" fill="none" stroke="#fff" stroke-miterlimit="10"/><path d="M339.43.5C313.75.5,293,19.23,293,42.34V64.27h0V255.61h70.86V64.28h42.52V255.62h70.85V64.28h42.52V255.62h70.86V64.28h0V.5Z" transform="translate(0)"/><path d="M339.43.5C313.75.5,293,19.23,293,42.34V64.27h0V255.61h70.86V64.28h42.52V255.62h70.85V64.28h42.52V255.62h70.86V64.28h0V.5Z" transform="translate(0)" fill="none" stroke="#fff" stroke-miterlimit="10"/><polygon points="258.23 0.5 211.23 0.5 170.13 0.5 0.93 255.62 87.55 255.62 211.23 70.75 211.23 191.89 141.88 191.89 99.32 255.62 211.23 255.62 284.4 255.62 284.4 0.5 258.23 0.5"/><polygon points="258.23 0.5 211.23 0.5 170.13 0.5 0.93 255.62 87.55 255.62 211.23 70.75 211.23 191.89 141.88 191.89 99.32 255.62 211.23 255.62 284.4 255.62 284.4 0.5 258.23 0.5" fill="none" stroke="#fff" stroke-miterlimit="10"/></g></svg>