<svg width="0" height="0" class="hidden">
  <symbol xmlns="http://www.w3.org/2000/svg" viewBox="0 0 10.7 19.98" id="ic_arr_hor">
    <path d="M.71,10,10,.71Z" transform="translate(0 0)" fill="currentColor"></path>
    <rect x="-1.72" y="4.85" width="14.13" height="1" transform="translate(-2.22 5.35) rotate(-45)" fill="currentColor"></rect>
    <path d="M10,19.28,3.21,12.49Z" transform="translate(0 0)" fill="currentColor"></path>
    <rect x="4.85" y="7.57" width="1" height="14.13" transform="translate(-8.78 8.07) rotate(-45)" fill="currentColor"></rect>
  </symbol>
  <symbol xmlns="http://www.w3.org/2000/svg" viewBox="0 0 12 5" id="ic_arrow_hor">
    <rect y="2" width="12" height="1" fill="currentColor"></rect>
    <rect x="10" y="1" width="1" height="1" fill="currentColor"></rect>
    <rect x="10" y="3" width="1" height="1" fill="currentColor"></rect>
    <rect x="9" y="4" width="1" height="1" fill="currentColor"></rect>
    <rect x="9" width="1" height="1" fill="currentColor"></rect>
  </symbol>
  <symbol xmlns="http://www.w3.org/2000/svg" viewBox="0 0 16.97 16.97" id="ic_close">
    <rect x="-3.01" y="7.99" width="23" height="1" transform="translate(-3.51 8.48) rotate(-45)" fill="currentColor"></rect>
    <rect x="7.99" y="-3.02" width="1" height="23" transform="translate(-3.51 8.48) rotate(-44.96)" fill="currentColor"></rect>
  </symbol>
  <symbol xmlns="http://www.w3.org/2000/svg" xmlns:xlink="http://www.w3.org/1999/xlink" viewBox="0 0 10.49 8.4" id="ic_email">
    <path d="M5.7,5.17v0a.5.5,0,0,1-.17.11h0l-.1,0h0l-.1,0h0a.62.62,0,0,1-.17-.11s0,0,0,0l-.45-.42L.7,8.34A1.14,1.14,0,0,0,1,8.4H9.47a1.13,1.13,0,0,0,.32-.06L6,4.87Z" transform="translate(0 0)" fill="currentColor"></path>
    <path d="M.09.61A1,1,0,0,0,0,1V7.37a1,1,0,0,0,.08.38L4,4.17Z" transform="translate(0 0)" fill="currentColor"></path>
    <path d="M9.93.11A1,1,0,0,0,9.47,0H1A1.26,1.26,0,0,0,.75,0L5.37,4.31Z" transform="translate(0 0)" fill="currentColor"></path>
    <path d="M10.46.78,6.66,4.29l3.76,3.46a1,1,0,0,0,.07-.38V1a1,1,0,0,0,0-.25" transform="translate(0 0)" fill="currentColor"></path>
  </symbol>
  <symbol xmlns="http://www.w3.org/2000/svg" viewBox="0 0 16 20" id="ic_file">
    <path d="M10,2.41,13.59,6H10ZM9,0H0V20H10V19H1V1H9V7h6v7h1V7h0Z" transform="translate(0 0)" fill="currentColor"></path>
    <polygon points="12 13 12 16 9 16 9 17 12 17 12 20 13 20 13 17 16 17 16 16 13 16 13 13 12 13" fill="currentColor"></polygon>
  </symbol>
  <symbol xmlns="http://www.w3.org/2000/svg" xmlns:xlink="http://www.w3.org/1999/xlink" viewBox="0 0 8.68 11.42" id="ic_location">
    <path d="M4.34,0A4.34,4.34,0,0,0,0,4.34C0,6.49,2,8.29,2.36,8.63a8,8,0,0,1,2,2.79,8,8,0,0,1,2-2.79c.33-.34,2.36-2.14,2.36-4.29A4.34,4.34,0,0,0,4.34,0m0,6.43A2.09,2.09,0,1,1,6.43,4.34,2.1,2.1,0,0,1,4.34,6.43" transform="translate(0 0)" fill="currentColor"></path>
    <path d="M4.34,3.11A1.23,1.23,0,1,0,5.57,4.34,1.23,1.23,0,0,0,4.34,3.11" transform="translate(0 0)" fill="currentColor"></path>
  </symbol>
  <symbol xmlns="http://www.w3.org/2000/svg" xmlns:xlink="http://www.w3.org/1999/xlink" viewBox="0 0 14.54 14.89" id="ic_phone">
    <path d="M13.18,12.17,10.34,9.48a.68.68,0,0,0-.44-.19.78.78,0,0,0-.52.17l-.68.65a1.56,1.56,0,0,1-1.94-.26l-2-2.13a1.32,1.32,0,0,1-.11-1.81c.18-.16.62-.64.8-.8a.69.69,0,0,0,.23-.49.65.65,0,0,0-.17-.51L3.06.86a.75.75,0,0,0-.55-.3.73.73,0,0,0-.6.26l0,.06C1.26,1.6,0,2.62,0,4.32.05,7.83,6.36,14.68,9.43,14.88c1,.06,1.89-.17,3.66-1.6a.71.71,0,0,0,.3-.55.74.74,0,0,0-.21-.56" transform="translate(0 0)" fill="currentColor"></path>
    <path d="M14.52,7.49a.54.54,0,0,1-.47.39.55.55,0,0,1-.58-.49,7.19,7.19,0,0,0-5.18-6.3l-.13,0A.55.55,0,0,1,7.79.39.55.55,0,0,1,8.45,0l.14,0a8.26,8.26,0,0,1,5.95,7.23.65.65,0,0,1,0,.2" transform="translate(0 0)" fill="currentColor"></path>
    <path d="M11.71,7.26a.53.53,0,0,1-.41.38.54.54,0,0,1-.63-.43A4.49,4.49,0,0,0,8,3.88a.54.54,0,1,1,.41-1A5.52,5.52,0,0,1,11.72,7a.42.42,0,0,1,0,.25" transform="translate(0 0)" fill="currentColor"></path>
  </symbol>
  <symbol xmlns="http://www.w3.org/2000/svg" xmlns:xlink="http://www.w3.org/1999/xlink" viewBox="0 0 24.47 20.52" id="ic_telegram">
    <path d="M24.4,1.87,20.71,19.28c-.28,1.23-1,1.54-2,1L13,16.09,10.33,18.7a1.42,1.42,0,0,1-1.13.56l.4-5.73L20,4.1c.45-.4-.1-.63-.71-.22L6.43,12,.88,10.26c-1.2-.38-1.23-1.21.25-1.79L22.84.11c1-.38,1.89.22,1.56,1.76" transform="translate(0 0)" fill="currentColor"></path>
  </symbol>
  <symbol xmlns="http://www.w3.org/2000/svg" xmlns:xlink="http://www.w3.org/1999/xlink" viewBox="0 0 21.83 21.83" id="ic_search">
    <path d="M13,1A7.78,7.78,0,1,1,5.26,8.78,7.79,7.79,0,0,1,13,1m0-1a8.78,8.78,0,1,0,8.79,8.78A8.78,8.78,0,0,0,13,0" transform="translate(0 0)" fill="currentColor"></path>
    <line x1="7.1" y1="14.73" x2="0.5" y2="21.33" fill="none" stroke="currentColor" stroke-linecap="round" stroke-linejoin="round"></line>
  </symbol>
  <symbol xmlns="http://www.w3.org/2000/svg" xmlns:xlink="http://www.w3.org/1999/xlink" viewBox="0 0 15 15" id="ic_time">
    <defs>
      <clipPath id="a">
        <rect width="15" height="15" fill="none"></rect>
      </clipPath>
    </defs>
    <g clip-path="url(#a)">
      <path d="M7.5,0A7.5,7.5,0,1,0,15,7.5,7.5,7.5,0,0,0,7.5,0m-6,8A.5.5,0,1,1,2,7.5a.5.5,0,0,1-.5.5m6,6a.5.5,0,1,1,.5-.5.5.5,0,0,1-.5.5m5-6h-5A.5.5,0,0,1,7,7.5v-5a.5.5,0,0,1,1,0V7h4.5a.5.5,0,0,1,0,1" fill="currentColor"></path>
    </g>
  </symbol>
  <symbol xmlns="http://www.w3.org/2000/svg" xmlns:xlink="http://www.w3.org/1999/xlink" viewBox="0 0 24.92 17.51" id="ic_youtube">
    <path d="M12.62,17.51c-2.8-.08-5.46-.15-8.13-.26A9,9,0,0,1,2.78,17,2.86,2.86,0,0,1,.63,15.1a10.33,10.33,0,0,1-.49-2.57A50.49,50.49,0,0,1,.05,6.38,15.4,15.4,0,0,1,.44,2.93a3.51,3.51,0,0,1,1-1.81,3.11,3.11,0,0,1,2-.86C5.51.16,7.6,0,9.7,0c2.83,0,5.65,0,8.48.06a34.43,34.43,0,0,1,3.66.25,2.85,2.85,0,0,1,2.38,1.84,8.49,8.49,0,0,1,.54,2.58,49.06,49.06,0,0,1,.09,6.64,14,14,0,0,1-.43,3.34A3.09,3.09,0,0,1,22,17.09a8.75,8.75,0,0,1-1.54.17l-7.85.25M9.91,11.94l6.7-3.48L9.91,5Z" transform="translate(0 0)" fill="currentColor"></path>
  </symbol>
  <symbol xmlns="http://www.w3.org/2000/svg" xmlns:xlink="http://www.w3.org/1999/xlink" viewBox="0 0 18.61 19.51" id="ic_video_play">
    <path d="M2.14,1a1.13,1.13,0,0,1,.53.14L17,8.75a1.13,1.13,0,0,1,.6,1,1.12,1.12,0,0,1-.6,1L2.67,18.37a1.13,1.13,0,0,1-1.67-1V2.14A1.14,1.14,0,0,1,2.14,1m0-1A2.14,2.14,0,0,0,0,2.14V17.37a2.14,2.14,0,0,0,2.14,2.14,2.07,2.07,0,0,0,1-.26l14.34-7.61a2.14,2.14,0,0,0,0-3.77L3.14.25a2.18,2.18,0,0,0-1-.25" transform="translate(0 0)" fill="currentColor"></path>
  </symbol>
  <symbol xmlns="http://www.w3.org/2000/svg" xmlns:xlink="http://www.w3.org/1999/xlink" viewBox="0 0 19.9 20" id="ic_whatsapp">
    <path d="M17,2.91A9.8,9.8,0,0,0,10,0,9.9,9.9,0,0,0,1.41,14.86L0,20l5.25-1.38A9.91,9.91,0,0,0,10,19.83h0A9.92,9.92,0,0,0,19.9,9.92a9.77,9.77,0,0,0-2.9-7M14.84,13.45a2.52,2.52,0,0,1-1.67,1.18,3.43,3.43,0,0,1-1.56-.1A14.3,14.3,0,0,1,10.2,14,11,11,0,0,1,6,10.27,4.86,4.86,0,0,1,5,7.71a2.82,2.82,0,0,1,.86-2.07.92.92,0,0,1,.67-.31H7c.15,0,.36-.06.56.43s.7,1.71.76,1.84A.46.46,0,0,1,8.3,8a1.46,1.46,0,0,1-.25.41c-.12.15-.26.33-.37.44s-.25.25-.11.5A7.87,7.87,0,0,0,9,11.11a7.19,7.19,0,0,0,2,1.23c.25.12.39.1.54-.07s.62-.72.78-1,.33-.2.56-.12,1.44.68,1.69.8.42.19.48.29a2.08,2.08,0,0,1-.15,1.18" transform="translate(0 0)" fill="currentColor" fill-rule="evenodd"></path>
  </symbol>
  <symbol xmlns="http://www.w3.org/2000/svg" xmlns:xlink="http://www.w3.org/1999/xlink" viewBox="0 0 26.96 26.96" id="ic_zoom">
    <defs>
      <clipPath id="a" transform="translate(0 0)">
        <rect width="26.96" height="26.96" fill="none"></rect>
      </clipPath>
    </defs>
    <g clip-path="url(#a)">
      <path d="M16.06,1a9.9,9.9,0,1,1-9.89,9.9A9.91,9.91,0,0,1,16.06,1m0-1A10.9,10.9,0,1,0,27,10.9,10.9,10.9,0,0,0,16.06,0" transform="translate(0 0)" fill="currentColor"></path>
      <line x1="8.69" y1="18.27" x2="0.5" y2="26.46" fill="none" stroke="currentColor" stroke-linecap="round" stroke-linejoin="round"></line>
      <path d="M16.06,16.75h0a.5.5,0,0,0,.5-.5V5.54a.5.5,0,0,0-.5-.5.5.5,0,0,0-.5.5V16.25a.5.5,0,0,0,.5.5" transform="translate(0 0)" fill="currentColor"></path>
      <path d="M10.06,10.89h0a.5.5,0,0,0,.5.5h11a.5.5,0,0,0,.5-.5.5.5,0,0,0-.5-.5h-11a.51.51,0,0,0-.5.5" transform="translate(0 0)" fill="currentColor"></path>
    </g>
  </symbol>
</svg>